<svg width="114" height="121" viewBox="0 0 114 121" fill="none" xmlns="http://www.w3.org/2000/svg">
<path d="M5.36234 85.2919C11.9975 70.2549 32.5037 53.085 48.8459 50.5042C51.5311 50.0562 54.2746 50.223 56.9063 50.8974C59.538 51.5694 62.0044 52.749 64.1982 54.4315C77.4126 64.588 87.6133 89.6672 86.5164 106.108C85.9668 114.244 79.1686 120.528 71.2712 120.022C64.9109 119.629 58.2757 115.702 53.9998 110.035C53.7809 109.754 53.562 109.473 53.3407 109.194C50.1617 105.603 47.3647 103.47 44.2392 102.686C41.1138 101.899 37.66 102.405 33.2187 104.032C32.888 104.144 32.5596 104.311 32.2313 104.423C25.8709 107.342 18.1924 107.621 12.4353 104.873C5.19698 101.506 2.07155 92.6984 5.36234 85.2919Z" fill="#FFBCA4"/>
<path d="M36.3983 7.24454C48.6276 -7.90448 60.5796 5.89812 59.9765 21.1043C59.867 27.1644 57.948 34.4565 53.5067 38.777C35.3014 56.3948 26.2535 18.8023 36.3983 7.24454Z" fill="#FFBCA4"/>
<path d="M65.4601 41.8079C63.541 35.8598 65.1293 28.5105 67.8728 23.1224C74.3426 9.43181 91.232 3.03572 95.0701 22.2812C98.6893 37.3182 73.411 66.1578 65.4601 41.8079Z" fill="#FFBCA4"/>
<path d="M3.77196 29.576C13.6979 14.987 25.487 26.5471 26.0342 40.2925C26.4185 45.7902 25.1562 52.4675 21.4276 56.7332C6.2942 74.0126 -4.56329 40.7977 3.77196 29.576Z" fill="#FFBCA4"/>
<path d="M113.548 57.6866C115.742 71.6012 90.9017 95.67 85.4752 73.1168C84.1571 67.6168 86.132 61.1087 88.9826 56.4522C95.7272 44.556 111.466 40.0116 113.548 57.6866Z" fill="#FFBCA4"/>
</svg>
