<svg width="477" height="1080" viewBox="0 0 477 1080" fill="none" xmlns="http://www.w3.org/2000/svg">
<rect x="0.274414" width="475.907" height="1080" fill="#AE5D3F"/>
<path d="M341.904 268.239C348.539 253.202 369.047 236.034 385.387 233.453C388.075 233.003 390.816 233.172 393.448 233.847C396.079 234.519 398.548 235.698 400.74 237.381C413.956 247.535 424.155 272.616 423.058 289.055C422.51 297.19 415.71 303.475 407.815 302.972C401.455 302.578 394.819 298.651 390.541 292.984C390.322 292.703 390.103 292.422 389.884 292.141C386.703 288.552 383.906 286.419 380.781 285.633C377.655 284.849 374.201 285.354 369.76 286.979C369.429 287.091 369.101 287.26 368.773 287.372C362.412 290.289 354.736 290.57 348.977 287.823C341.738 284.51 338.669 275.645 341.904 268.239Z" fill="#FFBCA4" fill-opacity="0.37"/>
<path d="M372.995 190.194C385.222 175.045 397.176 188.847 396.573 204.051C396.464 210.111 394.545 217.406 390.103 221.726C371.842 239.344 362.797 201.752 372.995 190.194Z" fill="#FFBCA4" fill-opacity="0.37"/>
<path d="M402.003 224.755C400.084 218.809 401.674 211.457 404.415 206.072C410.885 192.381 427.775 185.985 431.613 205.23C435.232 220.322 409.954 249.107 402.003 224.755Z" fill="#FFBCA4" fill-opacity="0.37"/>
<path d="M340.369 212.58C350.293 197.994 362.082 209.551 362.631 223.297C363.016 228.797 361.753 235.472 358.025 239.737C342.835 257.019 332.034 223.747 340.369 212.58Z" fill="#FFBCA4" fill-opacity="0.37"/>
<path d="M450.092 240.633C452.283 254.55 427.445 278.619 422.016 256.064C420.7 250.566 422.673 244.058 425.526 239.399C432.324 227.505 448.007 223.016 450.092 240.633Z" fill="#FFBCA4" fill-opacity="0.37"/>
<path d="M242.71 119.611C249.345 104.574 269.851 87.4039 286.194 84.823C288.879 84.375 291.622 84.5418 294.254 85.2163C296.886 85.8883 299.352 87.0679 301.546 88.7503C314.76 98.9068 324.961 123.986 323.864 140.427C323.314 148.562 316.516 154.846 308.619 154.341C302.259 153.948 295.623 150.021 291.347 144.354C291.129 144.073 290.91 143.792 290.688 143.513C287.509 139.921 284.712 137.789 281.587 137.005C278.461 136.218 275.008 136.723 270.566 138.351C270.236 138.463 269.907 138.63 269.579 138.742C263.219 141.661 255.54 141.94 249.783 139.192C242.545 135.825 239.419 127.017 242.71 119.611Z" fill="#FFBCA4" fill-opacity="0.37"/>
<path d="M273.746 41.5634C285.975 26.4144 297.927 40.217 297.324 55.4232C297.215 61.4833 295.296 68.7754 290.854 73.0958C272.649 90.7137 263.601 53.1212 273.746 41.5634Z" fill="#FFBCA4" fill-opacity="0.37"/>
<path d="M302.808 76.1267C300.889 70.1786 302.477 62.8293 305.22 57.4413C311.69 43.7507 328.58 37.3546 332.418 56.6C336.037 71.6371 310.759 100.477 302.808 76.1267Z" fill="#FFBCA4" fill-opacity="0.37"/>
<path d="M241.12 63.8948C251.046 49.3058 262.835 60.866 263.382 74.6114C263.766 80.1091 262.504 86.7864 258.775 91.052C243.642 108.331 232.784 75.1166 241.12 63.8948Z" fill="#FFBCA4" fill-opacity="0.37"/>
<path d="M350.896 92.0055C353.09 105.92 328.249 129.989 322.823 107.436C321.505 101.936 323.48 95.4275 326.33 90.7711C333.075 78.8749 348.814 74.3304 350.896 92.0055Z" fill="#FFBCA4" fill-opacity="0.37"/>
</svg>
